<?xml version="1.0" encoding="utf-8"?>
<!-- Generator: Adobe Illustrator 15.0.0, SVG Export Plug-In . SVG Version: 6.00 Build 0)  -->
<!DOCTYPE svg PUBLIC "-//W3C//DTD SVG 1.1//EN" "http://www.w3.org/Graphics/SVG/1.1/DTD/svg11.dtd">
<svg version="1.1" id="Layer_1" xmlns="http://www.w3.org/2000/svg" xmlns:xlink="http://www.w3.org/1999/xlink" x="0px" y="0px"
	 width="271.758px" height="52.066px" viewBox="0 0 271.758 52.066" enable-background="new 0 0 271.758 52.066"
	 xml:space="preserve">
<g>
	<path d="M0,51.152L16.699,0.387h25.207l16.98,50.766H39.691l-3.199-9.141H21.41l-3.199,9.141L0,51.152L0,51.152z
		 M29.355,11.637l-7.277,20.108H36.07L29.355,11.637z"/>
	<path d="M58.184,51.152V0.387h34.629c5.555,0.047,9.779,1.008,12.674,2.883s4.646,5.016,5.256,9.422
		c0.211,3.375-0.504,6.023-2.145,7.945c-1.641,1.922-4.348,3.504-8.121,4.745v0.142c1.851,0.233,3.563,0.732,5.133,1.494
		c1.57,0.762,2.888,1.665,3.955,2.707c1.066,1.043,1.893,2.221,2.479,3.532c0.585,1.313,0.879,2.603,0.879,3.867
		c0,4.008-1.025,7.043-3.076,9.105c-2.051,2.063-4.688,3.41-7.91,4.043c-3.223,0.633-7.131,0.926-11.725,0.879H58.184z
		 M75.691,12.691v7.699h12.305c0.68,0,1.394-0.357,2.145-1.072c0.75-0.715,1.148-1.67,1.195-2.865
		c-0.094-1.383-0.545-2.354-1.354-2.918c-0.809-0.563-1.482-0.844-2.021-0.844H75.691z M75.691,31.5v9.388h11.285
		c1.945,0.069,3.644-0.353,5.098-1.267c1.453-0.914,2.18-2.039,2.18-3.375c0.141-1.477-0.452-2.637-1.775-3.479
		c-1.324-0.845-3.159-1.267-5.502-1.267H75.691z"/>
	<path d="M171.949,26.051c0,5.556-1.16,10.289-3.48,14.203c-2.32,3.915-5.678,6.855-10.072,8.824
		c-4.394,1.969-9.639,2.953-15.731,2.953c-6.095,0-11.326-0.99-15.697-2.971c-4.372-1.98-7.682-4.91-9.932-8.789
		s-3.375-8.619-3.375-14.222c0-4.241,0.645-7.975,1.934-11.196c1.289-3.223,3.176-5.937,5.66-8.14s5.531-3.873,9.141-5.01
		C134.003,0.568,138.094,0,142.664,0c6.07,0,11.309,1.002,15.715,3.006s7.77,4.957,10.09,8.859S171.949,20.496,171.949,26.051z
		 M131.695,26.191c0,3.258,0.732,6.094,2.197,8.508c1.464,2.414,4.354,3.621,8.667,3.621c3.328,0,5.817-0.633,7.471-1.898
		c1.652-1.265,2.684-2.712,3.094-4.342c0.41-1.629,0.686-3.591,0.826-5.889c-0.141-3.257-0.926-6.101-2.355-8.525
		c-1.43-2.426-4.441-3.639-9.035-3.639C135.316,14.027,131.695,18.083,131.695,26.191z"/>
	<path d="M189.141,0.387V30.41c-0.141,3.422,0.516,5.801,1.969,7.137s3.728,2.052,6.82,2.146
		c2.484-0.047,4.559-0.773,6.223-2.18s2.449-3.773,2.355-7.103V0.387h16.523v29.776c-0.07,4.219-0.768,7.588-2.092,10.107
		s-3,4.623-5.027,6.311c-2.027,1.688-4.57,3-7.629,3.938c-3.059,0.938-6.463,1.453-10.213,1.547c-3.117-0.07-6.288-0.498-9.51-1.283
		c-3.224-0.785-6.035-2.021-8.438-3.709c-2.403-1.688-4.254-3.855-5.556-6.504c-1.301-2.648-1.95-6.105-1.95-10.371V0.387H189.141z"
		/>
	<path d="M271.758,0.387v15.116h-16.102v35.648h-16.523V15.504h-16.102V0.387H271.758z"/>
</g>
</svg>
