<?xml version="1.0" encoding="utf-8"?>
<!-- Generator: Adobe Illustrator 15.0.0, SVG Export Plug-In . SVG Version: 6.00 Build 0)  -->
<!DOCTYPE svg PUBLIC "-//W3C//DTD SVG 1.1//EN" "http://www.w3.org/Graphics/SVG/1.1/DTD/svg11.dtd">
<svg version="1.1" id="Layer_1" xmlns="http://www.w3.org/2000/svg" xmlns:xlink="http://www.w3.org/1999/xlink" x="0px" y="0px"
	 width="57.41px" height="61.418px" viewBox="0 0 57.41 61.418" enable-background="new 0 0 57.41 61.418" xml:space="preserve">
<g>
	<path fill="#FEC501" stroke="#FEC501" stroke-miterlimit="10" d="M57.41,30.059c0,3.211-0.463,6.545-1.389,10.002
		c-0.926,3.458-2.057,6.264-3.393,8.42H35.473l-0.527-2.742c-0.61,0.422-1.213,0.821-1.811,1.195
		c-0.598,0.375-1.26,0.691-1.986,0.949c-0.821,0.305-1.582,0.527-2.285,0.668s-1.665,0.211-2.883,0.211
		c-1.781,0-3.445-0.398-4.992-1.195c-1.547-0.796-2.883-1.945-4.008-3.445c-1.102-1.453-1.975-3.31-2.619-5.572
		c-0.645-2.262-0.967-4.716-0.967-7.365c0-2.719,0.398-5.191,1.195-7.418c0.796-2.227,1.863-4.148,3.199-5.766
		c1.266-1.477,2.76-2.648,4.482-3.516c1.723-0.867,3.521-1.301,5.396-1.301c1.5,0,2.835,0.305,4.008,0.914
		c1.172,0.61,2.074,1.23,2.707,1.863v-2.145l7.77-0.035v28.406h5.273c0.68-1.547,1.236-3.375,1.67-5.484
		c0.434-2.109,0.65-4.254,0.65-6.434c0-3.844-0.516-7.207-1.547-10.09c-1.032-2.883-2.473-5.296-4.324-7.242
		C42,10.969,39.802,9.51,37.283,8.561c-2.52-0.949-5.244-1.424-8.174-1.424c-2.766,0-5.385,0.527-7.857,1.582
		c-2.473,1.055-4.752,2.625-6.838,4.711c-1.992,2.016-3.592,4.5-4.799,7.453c-1.208,2.953-1.811,6.223-1.811,9.809
		c0,3.82,0.568,7.219,1.705,10.195c1.137,2.977,2.701,5.473,4.693,7.488c1.921,1.992,4.16,3.498,6.715,4.518
		c2.554,1.02,5.226,1.529,8.016,1.529c1.969,0,4.107-0.176,6.416-0.527c2.308-0.352,4.435-0.82,6.381-1.406v7.488
		c-2.133,0.492-4.189,0.855-6.17,1.09c-1.981,0.234-4.201,0.352-6.662,0.352c-4.148,0-7.998-0.744-11.549-2.232
		c-3.551-1.489-6.604-3.581-9.158-6.275c-2.579-2.719-4.588-5.977-6.029-9.773S0,35.168,0,30.621c0-4.312,0.75-8.332,2.25-12.059
		c1.5-3.727,3.563-6.984,6.188-9.773c2.602-2.742,5.683-4.892,9.246-6.451C21.246,0.779,25.043,0,29.074,0
		c4.008,0,7.746,0.727,11.215,2.18c3.468,1.454,6.457,3.493,8.965,6.117c2.554,2.625,4.553,5.771,5.994,9.439
		C56.689,21.405,57.41,25.512,57.41,30.059z M34.207,39.164V21.445c-0.961-0.492-1.846-0.849-2.654-1.072
		c-0.809-0.223-1.729-0.334-2.76-0.334c-2.273,0-4.02,1.008-5.238,3.023c-1.219,2.016-1.828,4.688-1.828,8.016
		c0,3.68,0.51,6.416,1.529,8.209s2.689,2.689,5.01,2.689c1.218,0,2.279-0.24,3.182-0.721C32.349,40.776,33.27,40.078,34.207,39.164z
		"/>
</g>
</svg>
