<?xml version="1.0" encoding="utf-8"?>
<!-- Generator: Adobe Illustrator 15.0.0, SVG Export Plug-In . SVG Version: 6.00 Build 0)  -->
<!DOCTYPE svg PUBLIC "-//W3C//DTD SVG 1.1//EN" "http://www.w3.org/Graphics/SVG/1.1/DTD/svg11.dtd">
<svg version="1.1" id="Layer_1" xmlns="http://www.w3.org/2000/svg" xmlns:xlink="http://www.w3.org/1999/xlink" x="0px" y="0px"
	 width="136.745px" height="140.016px" viewBox="0 0 136.745 140.016" enable-background="new 0 0 136.745 140.016"
	 xml:space="preserve">
<g id="XMLID_2_">
	<g>
		<path fill="#28AFC8" d="M136.388,64.44c1.07,8.68-0.42,17.86-2.41,25.52c-3.84,14.82-11.88,26.54-22.31,35.16
			c-10.3,8.52-24.99,14.37-43.02,14.37c-18.35,0-32.08-6.53-42.56-14.9c-10.8-8.62-18.6-19.78-23.03-34.359
			c-2.23-7.36-3.72-16.78-2.77-25.61c2.33-21.64,11.87-35.91,24.72-47.13c1.26-1.1,2.64-2.09,4.02-3.12
			c1.35-1.01,2.7-2.25,4.37-2.77c-0.24,0.83-1,1.32-1.51,1.97c-3.46,4.32-6.52,9.38-9.02,14.81c-2.92,6.35-5.19,13.52-4.82,22.31
			c0.35,8.27,3.22,14.67,7.23,20.08c1.87,2.52,3.95,5.07,6.7,6.96c3.26,2.26,7.49,4.609,13.29,4.02c3.89-0.4,7.34-2.99,9.28-5.53
			c3.44-4.489,5.32-12.22,4.56-20.35c-0.29-3.08-1.16-6.07-2.15-8.84c-0.97-2.74-1.99-5.35-3.39-7.58
			c-2.84-4.55-7.18-7.75-12.05-9.82c2.69-3.05,5.38-6.11,8.21-9.01c5.02,2.54,8.88,6.23,11.96,10.71c-0.3-7.4-2.96-12.45-6.06-17.05
			c4.13-4.82,8.33-9.58,12.58-14.28c4.15,4.72,8.4,9.33,12.4,14.19c-2.99,4.75-5.48,9.99-6.061,17.14
			c3.11-4.15,7.25-8.04,12.13-10.71c2.771,2.91,5.431,5.93,8.03,9.01c-5.38,2.31-9.94,6.03-12.76,11.25
			c-4.58,8.46-6.61,23.93-1.34,33.29c2.05,3.62,5.31,6.73,9.729,7.58c4.44,0.86,8.51-0.74,11.51-2.5c3.261-1.9,5.66-3.98,7.771-6.6
			c4.27-5.32,7.72-11.851,8.74-19.9c1.189-9.37-0.91-17.67-3.921-24.1c-2.63-5.6-6.13-10.69-9.909-15.17
			c-0.5-0.6-1.181-1.19-1.431-1.97c1.69,0.55,3.08,1.73,4.471,2.77c9.47,7.11,17.859,15.67,23.02,27.22
			C133.598,48.23,135.358,55.99,136.388,64.44z"/>
	</g>
	<g>
	</g>
</g>
</svg>
