<?xml version="1.0" encoding="utf-8"?>
<!-- Generator: Adobe Illustrator 15.0.0, SVG Export Plug-In . SVG Version: 6.00 Build 0)  -->
<!DOCTYPE svg PUBLIC "-//W3C//DTD SVG 1.1//EN" "http://www.w3.org/Graphics/SVG/1.1/DTD/svg11.dtd">
<svg version="1.1" id="Layer_1" xmlns="http://www.w3.org/2000/svg" xmlns:xlink="http://www.w3.org/1999/xlink" x="0px" y="0px"
	 width="800px" height="600px" viewBox="0 0 800 600" enable-background="new 0 0 800 600" xml:space="preserve">
<path fill="#FEC501" d="M266.525,128h-66.733c-16.89,0-26.926,8.359-30.108,24.76c-3.183,16.4,5.875,34.273,27.17,53.856
	C209.767,216.773,207.563,222,190.246,221H14v40h218.838c19.093-3,28.823-13.04,29.189-29.439
	c0.368-16.401-9.363-33.219-29.189-50.599c-11.076-9.179-8.75-13.962,6.976-12.962h26.712H303v93h43v-93h37v-40H266.525z M377,162
	h-36v93h-32v-93h-37h-32.187c-20.316,0-25.579,5.955-15.788,18.683c21.051,17.87,31.821,33.793,32.311,47.99
	C256.826,242.87,248.993,252,232.838,255H20v-28h170.246c23.254-1,27.17-8.555,11.75-23.731
	c-20.807-19.337-29.557-35.613-26.253-48.954c3.306-13.34,11.322-20.315,24.05-20.315H272h105V162z"/>
<path fill="#FEC501" d="M361.734,260.867l43.603-132.548h65.814l44.335,132.548h-50.117l-8.354-23.866h-39.38l-8.353,23.866H361.734
	z M369.445,255.359h36.167l8.536-23.865h47.272l8.63,23.865h37.909l-40.389-121.533h-57.646L369.445,255.359z M438.382,155.765
	l18.816,54.432h-39.103L438.382,155.765z M426.723,204.69h21.848l-10.097-29.557L426.723,204.69z"/>
<path fill="#FEC501" d="M519.486,260.867V128.319h86.286c10.647,0.979,19.185,3.611,25.61,7.894
	c6.425,4.284,10.801,8.415,13.126,12.392c2.325,3.978,3.978,8.843,4.956,14.595c0.98,5.752,0.337,12.025-1.928,18.817
	c-2.264,6.793-6.149,12.331-11.657,16.615c-5.507,4.283-13.402,7.649-23.683,10.097l9.913,12.667h169.919v39.471H609.444
	l-42.041-43.785v43.785H519.486z M524.994,255.359h36.901v-43.785h8.904l41.856,43.785h173.865v-28.455H618.898l-12.209-14.963
	v-7.71c12.606-2.57,21.22-5.783,25.84-9.639c4.621-3.855,7.895-8.567,9.823-14.136c1.928-5.569,2.538-10.893,1.835-15.973
	c-0.704-5.078-2.02-9.286-3.948-12.621c-1.927-3.336-5.798-6.961-11.61-10.878c-5.814-3.916-13.433-6.303-22.856-7.16h-80.778
	V255.359z M565.109,159.069h37.082c1.653,0,3.673,0.964,6.059,2.891c2.388,1.928,3.795,5.921,4.223,11.979
	c-0.244,6.302-1.515,10.25-3.809,11.841c-2.295,1.59-4.422,2.387-6.379,2.387h-37.176V159.069z M570.8,164.393v18.726h28.363
	c1.469,0,3.105-0.505,4.911-1.515c1.805-1.01,2.768-3.596,2.892-7.757c-0.308-3.794-1.393-6.318-3.26-7.573
	c-1.865-1.254-3.411-1.881-4.635-1.881H570.8z"/>
<path fill="#FEC501" d="M143.046,368.657v39.471H84.299c-14.381,0-27.385-2.556-39.012-7.665s-20.792-12.773-27.492-22.994
	c-6.701-10.219-10.051-22.732-10.051-37.543c0-10.403,2.003-19.689,6.012-27.859c4.009-8.17,9.562-14.961,16.661-20.377
	c7.098-5.417,15.253-9.456,24.462-12.117c9.209-2.663,19.016-3.993,29.419-3.993h58.747v39.47h-41.49
	c-9.301,0-16.187,0.275-20.653,0.826c-4.467,0.551-8.445,1.469-11.933,2.754s-6.578,3.52-9.271,6.7
	c-2.692,3.184-4.253,8.813-4.681,16.891c0.306,7.834,1.866,13.432,4.681,16.798c2.814,3.366,6.242,5.6,10.281,6.701
	s8.201,1.865,12.483,2.296c4.284,0.427,10.648,0.642,19.093,0.642H143.046z M137.539,281.087H84.299
	c-10.036,0.122-19.215,1.315-27.538,3.58s-15.696,5.905-22.122,10.923c-6.425,5.019-11.535,11.199-15.329,18.543
	c-3.794,7.342-5.813,15.94-6.058,25.793c-0.123,13.892,2.998,25.488,9.363,34.79c6.364,9.301,14.932,16.216,25.702,20.745
	c10.77,4.527,22.765,6.914,35.983,7.159h53.239v-28.456h-35.982c-8.323,0.123-14.932-0.091-19.828-0.642
	c-4.895-0.551-9.73-1.47-14.503-2.754c-4.773-1.285-8.782-4.13-12.024-8.537c-3.244-4.406-5.141-11.076-5.691-20.011
	c0.673-10.281,2.754-17.166,6.242-20.653c3.488-3.488,7.221-6.027,11.198-7.618c3.978-1.592,8.399-2.678,13.264-3.26
	c4.866-0.58,11.979-0.963,21.342-1.146h35.982V281.087z"/>
<path fill="#FEC501" d="M226.395,321.292V275.58h43.142v132.548h-43.142v-47.733h-34.699v47.733h-43.142V275.58h43.142v45.712
	H226.395z M154.061,281.087V402.62h32.127v-47.731h45.713v47.731h32.128V281.087h-32.128v45.711h-45.713v-45.711H154.061z"/>
<path fill="#FEC501" d="M425.646,342.588c0,14.504-3.029,26.865-9.088,37.084c-6.058,10.22-14.824,17.899-26.298,23.04
	c-11.475,5.141-25.167,7.711-41.078,7.711s-29.573-2.586-40.985-7.757s-20.057-12.82-25.931-22.948
	c-5.875-10.127-8.813-22.504-8.813-37.13c0-11.077,1.683-20.821,5.049-29.235c3.366-8.415,8.292-15.498,14.778-21.25
	c6.486-5.752,14.442-10.113,23.866-13.08c9.424-2.969,20.103-4.453,32.036-4.453c15.85,0,29.527,2.617,41.031,7.849
	c11.504,5.232,20.287,12.943,26.344,23.131C422.617,315.738,425.646,328.084,425.646,342.588z M420.139,342.588
	c-0.245-13.341-3.167-24.692-8.766-34.056c-5.6-9.363-13.708-16.461-24.326-21.295c-10.617-4.834-23.238-7.251-37.864-7.251
	c-11.015,0-20.868,1.376-29.558,4.13c-8.689,2.753-16.033,6.762-22.03,12.024c-5.997,5.264-10.541,11.766-13.631,19.506
	c-3.091,7.741-4.759,16.69-5.003,26.85c0.244,13.463,3.075,24.845,8.49,34.146c5.417,9.302,13.387,16.339,23.912,21.113
	c10.525,4.772,23.132,7.159,37.819,7.159c14.687,0,27.324-2.371,37.911-7.114c10.586-4.742,18.68-11.811,24.279-21.204
	C416.972,367.203,419.894,355.867,420.139,342.588z M317.147,342.771c0-23.254,10.403-34.881,31.209-34.881
	c13.218,0,21.877,3.473,25.978,10.419c4.1,6.945,6.395,15.1,6.884,24.462c-0.489,6.548-1.315,12.162-2.478,16.844
	c-1.163,4.681-4.115,8.844-8.858,12.484s-11.918,5.461-21.525,5.461c-12.362,0-20.653-3.472-24.875-10.418
	C319.259,360.198,317.147,352.073,317.147,342.771z M323.114,343.048c0,7.771,1.713,14.548,5.14,20.331
	c3.427,5.782,10.25,8.674,20.469,8.674c7.833,0,13.708-1.53,17.625-4.589c3.917-3.06,6.365-6.518,7.343-10.372
	c0.979-3.856,1.622-8.538,1.928-14.044c-0.306-7.772-2.158-14.534-5.554-20.287c-3.397-5.752-10.511-8.628-21.342-8.628
	C331.651,314.133,323.114,323.771,323.114,343.048z"/>
<path fill="#FEC501" d="M430.979,408.128V275.58h86.285c10.647,0.979,19.186,3.61,25.609,7.894
	c6.427,4.284,10.802,8.414,13.126,12.392c2.326,3.978,3.979,8.843,4.958,14.595c0.979,5.751,0.337,12.024-1.928,18.817
	c-2.265,6.792-6.149,12.33-11.657,16.614c-5.508,4.283-13.402,7.648-23.684,10.098l9.915,12.667h34.146v39.471h-46.815
	l-42.041-43.785v43.785H430.979z M436.487,402.62h36.9v-43.786h8.904l41.857,43.786h38.094v-28.456h-31.853l-12.209-14.962v-7.71
	c12.607-2.57,21.22-5.782,25.84-9.639c4.622-3.855,7.895-8.567,9.822-14.137c1.929-5.567,2.539-10.892,1.837-15.971
	c-0.705-5.08-2.02-9.287-3.947-12.622c-1.929-3.335-5.798-6.961-11.612-10.877c-5.813-3.917-13.432-6.303-22.856-7.159h-80.777
	V402.62z M476.602,306.33h37.083c1.652,0,3.672,0.964,6.059,2.892s3.794,5.92,4.222,11.979c-0.244,6.304-1.514,10.25-3.808,11.841
	c-2.296,1.592-4.422,2.387-6.381,2.387h-37.175V306.33z M482.292,311.654v18.726h28.364c1.468,0,3.105-0.505,4.91-1.515
	c1.806-1.01,2.77-3.596,2.892-7.757c-0.307-3.795-1.392-6.317-3.259-7.573c-1.866-1.254-3.412-1.881-4.635-1.881H482.292z"/>
<path fill="#FEC501" d="M768.062,314H792v-37h-63.96c-16.891,0-26.926,7.487-30.108,23.887
	c-3.183,16.398,5.875,35.208,27.171,54.792C738.014,365.836,735.811,371,718.493,371h-27.904H613v-15h48v-28h-48v-14h69v-37H573v130
	h117.589h70.497c19.091,0,28.822-12.414,29.189-28.814c0.366-16.4-9.363-33.53-29.189-50.91
	C750.009,318.096,752.334,314,768.062,314z M752.273,327.81c21.051,17.869,31.82,33.729,32.311,47.927
	C785.072,389.934,777.24,396,761.086,402h-46.968H579V283h99v26h-68v25h45v16h-45v27h104.118h4.375
	c23.254,0,27.171-9.928,11.75-25.104c-20.807-19.338-29.558-35.426-26.253-48.768c3.305-13.341,11.32-20.129,24.05-20.129H786v26
	h-17.938C747.745,309,742.481,315.08,752.273,327.81z"/>
</svg>
