<?xml version="1.0" encoding="utf-8"?>
<!-- Generator: Adobe Illustrator 15.0.0, SVG Export Plug-In . SVG Version: 6.00 Build 0)  -->
<!DOCTYPE svg PUBLIC "-//W3C//DTD SVG 1.1//EN" "http://www.w3.org/Graphics/SVG/1.1/DTD/svg11.dtd">
<svg version="1.1" id="Layer_1" xmlns="http://www.w3.org/2000/svg" xmlns:xlink="http://www.w3.org/1999/xlink" x="0px" y="0px"
	 width="254.792px" height="49.262px" viewBox="0 1.504 254.792 49.262" enable-background="new 0 1.504 254.792 49.262"
	 xml:space="preserve">
<g>
	<path fill="#FEC501" d="M2.001,49.655V1.504h31.345c3.868,0.356,7.069,1.356,9.604,3.001c2.534,1.646,4.335,3.935,5.402,6.87
		c0.978,3.557,1.378,6.225,1.201,8.002c-0.178,1.779-0.534,3.446-1.067,5.002c-0.534,1.556-2.001,3.357-4.402,5.402
		c-2.401,2.046-5.602,3.368-9.604,3.969H19.407v15.905H2.001z M19.407,13.508v8.87h12.138c0.645,0,1.345-0.239,2.101-0.717
		c0.755-0.478,1.156-1.684,1.2-3.618c-0.111-1.845-0.562-3.062-1.35-3.651c-0.79-0.589-1.451-0.884-1.984-0.884H19.407z"/>
	<path fill="#FEC501" d="M52.052,49.655V1.504h31.345c3.868,0.356,7.047,1.379,9.537,3.068c2.489,1.69,4.313,3.957,5.468,6.803
		c0.889,4.268,0.934,7.558,0.134,9.87s-2.201,4.246-4.202,5.802c-2.001,1.557-4.869,2.779-8.603,3.668l3.601,4.602h14.405v14.339
		H84.731L69.459,33.749v15.905H52.052z M69.459,13.508v8.87h12.138c0.645,0,1.345-0.239,2.101-0.717
		c0.755-0.478,1.156-1.684,1.2-3.618c-0.111-1.845-0.562-3.062-1.35-3.651c-0.79-0.589-1.451-0.884-1.984-0.884H69.459z"/>
	<path fill="#FEC501" d="M103.071,1.504h15.672v48.151h-15.672V1.504z"/>
	<path fill="#FEC501" d="M154.49,35.316h15.072v14.339H148.22c-5.224,0-9.948-0.928-14.172-2.784
		c-4.224-1.856-7.553-4.641-9.987-8.354c-2.434-3.712-3.651-8.258-3.651-13.638c0-3.779,0.728-7.153,2.184-10.121
		c1.456-2.968,3.473-5.435,6.052-7.403c2.579-1.967,5.541-3.435,8.887-4.401c3.345-0.967,6.908-1.451,10.687-1.451h13.205h8.136
		v14.339H154.49c-3.379,0-5.88,0.1-7.503,0.3c-1.623,0.2-3.068,0.534-4.335,1s-2.39,1.278-3.368,2.434
		c-0.979,1.156-1.545,3.201-1.701,6.136c0.111,2.846,0.678,4.879,1.701,6.102c1.022,1.223,2.268,2.034,3.734,2.435
		c1.467,0.399,2.979,0.678,4.535,0.833C149.109,35.239,151.422,35.316,154.49,35.316z"/>
	<path fill="#FEC501" d="M171.562,49.655V1.504h41.282v14.339h-25.609v5.535h16.539v8.403h-16.539v5.535h29.678v14.339H171.562z"/>
	<path fill="#FEC501" d="M254.792,15.843h-11.737c-5.714-0.178-6.559,1.4-2.534,4.735c7.202,6.313,10.737,12.449,10.604,18.406
		c-0.133,5.958-3.668,9.516-10.604,10.671h-25.609V35.316h10.137c6.291,0.179,7.092-1.578,2.401-5.269
		c-7.736-7.113-11.026-13.649-9.87-19.607c1.155-5.957,4.802-8.937,10.937-8.937h26.276V15.843z"/>
</g>
</svg>
