<?xml version="1.0" encoding="utf-8"?>
<!-- Generator: Adobe Illustrator 15.0.0, SVG Export Plug-In . SVG Version: 6.00 Build 0)  -->
<!DOCTYPE svg PUBLIC "-//W3C//DTD SVG 1.1//EN" "http://www.w3.org/Graphics/SVG/1.1/DTD/svg11.dtd">
<svg version="1.1" xmlns="http://www.w3.org/2000/svg" xmlns:xlink="http://www.w3.org/1999/xlink" x="0px" y="0px"
	 width="796.069px" height="290.517px" viewBox="0 0 796.069 290.517" enable-background="new 0 0 796.069 290.517"
	 xml:space="preserve">
<g id="Main_Text">
	<path fill="#FEC501" d="M262.594,12.689h-66.733c-16.89,0-26.926,8.359-30.108,24.76c-3.183,16.4,5.875,34.273,27.17,53.856
		c12.912,10.158,10.708,15.384-6.609,14.384H62.069v40h166.838c19.093-3,28.823-13.04,29.189-29.439
		c0.368-16.401-9.363-33.219-29.189-50.599c-11.076-9.179-8.75-13.962,6.976-12.962h26.712h36.475v93h43v-93h37v-40H262.594z
		 M373.069,46.689h-36v93h-32v-93h-37h-32.187c-20.316,0-25.579,5.955-15.788,18.683c21.051,17.87,31.821,33.793,32.311,47.99
		c0.489,14.197-7.343,23.327-23.499,26.327H67.069v-28h119.246c23.254-1,27.17-8.555,11.75-23.731
		c-20.807-19.337-29.557-35.613-26.253-48.954c3.306-13.34,11.322-20.315,24.05-20.315h72.208h105V46.689z"/>
	<path fill="#FEC501" d="M357.803,145.557l43.603-132.548h65.814l44.335,132.548h-50.117l-8.354-23.866h-39.38l-8.353,23.866
		H357.803z M365.514,140.049h36.167l8.536-23.865h47.272l8.63,23.865h37.909L463.64,18.516h-57.646L365.514,140.049z
		 M434.451,40.455l18.816,54.432h-39.103L434.451,40.455z M422.792,89.38h21.848l-10.097-29.557L422.792,89.38z"/>
	<path fill="#FEC501" d="M515.555,145.557V13.008h86.286c10.647,0.979,19.185,3.611,25.61,7.894
		c6.425,4.284,10.801,8.415,13.126,12.392c2.325,3.978,3.978,8.843,4.956,14.595c0.98,5.752,0.337,12.025-1.928,18.817
		c-2.264,6.793-6.149,12.331-11.657,16.615c-5.507,4.283-13.402,7.649-23.683,10.097l9.913,12.667h117.919v39.471H605.513
		l-42.041-43.785v43.785H515.555z M521.063,140.049h36.901V96.264h8.904l41.856,43.785H730.59v-28.455H614.967l-12.209-14.963v-7.71
		c12.606-2.57,21.22-5.783,25.84-9.639c4.621-3.855,7.895-8.567,9.823-14.136c1.928-5.569,2.538-10.893,1.835-15.973
		c-0.704-5.078-2.02-9.286-3.948-12.621c-1.927-3.336-5.798-6.961-11.61-10.878c-5.814-3.916-13.433-6.303-22.856-7.16h-80.778
		V140.049z M561.178,43.759h37.082c1.653,0,3.673,0.964,6.059,2.891c2.388,1.928,3.795,5.921,4.223,11.979
		c-0.244,6.302-1.515,10.25-3.809,11.841c-2.295,1.59-4.422,2.387-6.379,2.387h-37.176V43.759z M566.869,49.083v18.726h28.363
		c1.469,0,3.105-0.505,4.911-1.515c1.805-1.01,2.768-3.596,2.892-7.757c-0.308-3.794-1.393-6.318-3.26-7.573
		c-1.865-1.254-3.411-1.881-4.635-1.881H566.869z"/>
	<path fill="#FEC501" d="M421.715,219.277c0,14.504-3.029,26.865-9.088,37.084c-6.058,10.22-14.824,17.899-26.298,23.04
		c-11.475,5.141-25.167,7.711-41.078,7.711s-29.573-2.586-40.985-7.757s-20.057-12.82-25.931-22.948
		c-5.875-10.127-8.813-22.504-8.813-37.13c0-11.077,1.683-20.821,5.049-29.235c3.366-8.415,8.292-15.498,14.778-21.25
		c6.486-5.752,14.442-10.113,23.866-13.08c9.424-2.969,20.103-4.453,32.036-4.453c15.85,0,29.527,2.617,41.031,7.849
		c11.504,5.232,20.287,12.943,26.344,23.131C418.686,192.428,421.715,204.773,421.715,219.277z M416.208,219.277
		c-0.245-13.341-3.167-24.692-8.766-34.056c-5.6-9.363-13.708-16.461-24.326-21.295c-10.617-4.834-23.238-7.251-37.864-7.251
		c-11.015,0-20.868,1.376-29.558,4.13c-8.689,2.753-16.033,6.762-22.03,12.024c-5.997,5.264-10.541,11.766-13.631,19.506
		c-3.091,7.741-4.759,16.69-5.003,26.85c0.244,13.463,3.075,24.845,8.49,34.146c5.417,9.302,13.387,16.339,23.912,21.113
		c10.525,4.772,23.132,7.159,37.819,7.159c14.687,0,27.324-2.371,37.911-7.114c10.586-4.742,18.68-11.811,24.279-21.204
		C413.041,243.893,415.962,232.557,416.208,219.277z M313.216,219.461c0-23.254,10.403-34.881,31.209-34.881
		c13.218,0,21.877,3.473,25.978,10.419c4.1,6.945,6.395,15.1,6.884,24.462c-0.489,6.548-1.315,12.162-2.478,16.844
		c-1.163,4.681-4.115,8.844-8.858,12.484s-11.918,5.461-21.525,5.461c-12.362,0-20.653-3.472-24.875-10.418
		C315.328,236.888,313.216,228.763,313.216,219.461z M319.183,219.737c0,7.771,1.713,14.548,5.14,20.331
		c3.427,5.782,10.25,8.674,20.469,8.674c7.833,0,13.708-1.53,17.625-4.589c3.917-3.06,6.365-6.518,7.343-10.372
		c0.979-3.856,1.622-8.538,1.928-14.044c-0.306-7.772-2.158-14.534-5.554-20.287c-3.397-5.752-10.511-8.628-21.342-8.628
		C327.72,190.822,319.183,200.46,319.183,219.737z"/>
	<path fill="#FEC501" d="M427.048,284.817V152.269h86.285c10.647,0.979,19.186,3.61,25.609,7.894
		c6.427,4.284,10.802,8.414,13.126,12.392c2.326,3.978,3.979,8.843,4.958,14.595c0.979,5.751,0.337,12.024-1.928,18.817
		c-2.265,6.792-6.149,12.33-11.657,16.614c-5.508,4.283-13.402,7.648-23.684,10.098l9.915,12.667h34.146v39.471h-46.815
		l-42.041-43.785v43.785H427.048z M432.556,279.31h36.9v-43.786h8.904l41.857,43.786h38.094v-28.456h-31.853l-12.209-14.962v-7.71
		c12.607-2.57,21.22-5.782,25.84-9.639c4.622-3.855,7.895-8.567,9.822-14.137c1.929-5.567,2.539-10.892,1.837-15.971
		c-0.705-5.08-2.02-9.287-3.947-12.622c-1.929-3.335-5.798-6.961-11.612-10.877c-5.813-3.917-13.432-6.303-22.856-7.159h-80.777
		V279.31z M472.67,183.02h37.083c1.652,0,3.672,0.964,6.059,2.892s3.794,5.92,4.222,11.979c-0.244,6.304-1.514,10.25-3.808,11.841
		c-2.296,1.592-4.422,2.387-6.381,2.387H472.67V183.02z M478.361,188.344v18.726h28.364c1.468,0,3.105-0.505,4.91-1.515
		c1.806-1.01,2.77-3.596,2.892-7.757c-0.307-3.795-1.392-6.317-3.259-7.573c-1.866-1.254-3.412-1.881-4.635-1.881H478.361z"/>
	<path fill="#FEC501" d="M764.13,190.689h23.938v-37h-63.96c-16.891,0-26.926,7.487-30.108,23.887
		c-3.183,16.398,5.875,35.208,27.171,54.792c12.911,10.157,10.708,15.321-6.609,15.321h-27.904h-75.589v-15h46v-28h-46v-14h69v-37
		h-111v130h117.589h70.497c19.091,0,28.822-12.414,29.189-28.814c0.366-16.4-9.363-33.53-29.189-50.91
		C746.078,194.785,748.403,190.689,764.13,190.689z M748.342,204.499c21.051,17.869,31.82,33.729,32.311,47.927
		c0.488,14.197-7.344,20.264-23.498,26.264h-46.968H575.069v-119h99v26h-68v24h46v18h-46v26h104.118h4.375
		c23.254,0,27.171-9.928,11.75-25.104c-20.807-19.338-29.558-35.426-26.253-48.768c3.305-13.341,11.32-20.129,24.05-20.129h57.96v26
		H764.13C743.814,185.689,738.55,191.77,748.342,204.499z"/>
</g>
<g id="CH_Separate">
	<path fill="#FEC501" d="M139.347,245.989v39.471H80.6c-14.381,0-27.385-2.556-39.012-7.665s-20.792-12.773-27.492-22.994
		c-6.701-10.219-10.051-22.732-10.051-37.543c0-10.403,2.003-19.689,6.012-27.859c4.009-8.17,9.562-14.962,16.661-20.377
		c7.098-5.417,15.253-9.456,24.462-12.116c9.209-2.663,19.016-3.994,29.419-3.994h58.747v39.471h-41.49
		c-9.301,0-16.187,0.275-20.653,0.826c-4.467,0.551-8.445,1.469-11.933,2.754s-6.578,3.52-9.271,6.7
		c-2.692,3.184-4.253,8.813-4.681,16.891c0.306,7.834,1.866,13.432,4.681,16.798c2.814,3.366,6.242,5.6,10.281,6.701
		s8.201,1.865,12.483,2.296c4.284,0.427,10.648,0.642,19.093,0.642H139.347z M133.839,158.419H80.6
		c-10.036,0.123-19.215,1.316-27.538,3.58s-15.696,5.905-22.122,10.923c-6.425,5.019-11.535,11.199-15.329,18.543
		c-3.794,7.342-5.813,15.94-6.058,25.793c-0.123,13.892,2.998,25.488,9.363,34.79c6.364,9.301,14.932,16.216,25.702,20.745
		c10.77,4.527,22.765,6.914,35.983,7.159h53.239v-28.456H97.857c-8.323,0.123-14.932-0.091-19.828-0.642
		c-4.895-0.551-9.73-1.47-14.503-2.754c-4.773-1.285-8.782-4.13-12.024-8.537c-3.244-4.406-5.141-11.076-5.691-20.011
		c0.673-10.281,2.754-17.166,6.242-20.653c3.488-3.488,7.221-6.027,11.198-7.618c3.978-1.592,8.399-2.678,13.264-3.26
		c4.866-0.58,11.979-0.963,21.342-1.146h35.982V158.419z"/>
	<path fill="#FEC501" d="M222.695,198.624v-45.713h43.142V285.46h-43.142v-47.733h-34.699v47.733h-43.142V152.911h43.142v45.713
		H222.695z M150.361,158.419v121.533h32.128v-47.731h45.713v47.731h32.128V158.419h-32.128v45.712h-45.713v-45.712H150.361z"/>
</g>
<g id="CH_joined" display="none">
	<path display="inline" fill="#FEC501" d="M222.069,152.689v45h-34v-45h-43v93H97.812c-8.445,0-14.809-0.46-19.093-0.886
		c-4.283-0.432-8.444-1.315-12.483-2.417s-7.466-3.397-10.281-6.763c-2.815-3.367-4.375-8.996-4.681-16.83
		c0.428-8.078,1.989-13.721,4.681-16.904c2.693-3.182,5.783-5.425,9.271-6.71s7.466-2.158,11.933-2.709
		c4.467-0.551,11.352-0.781,20.653-0.781h41.257v-39H80.555c-10.403,0-20.21,1.047-29.419,3.71
		c-9.209,2.661-17.364,6.558-24.462,11.975c-7.1,5.416-12.652,12.136-16.661,20.306C6.003,196.851,4,206.101,4,216.505
		c0,14.811,3.35,27.307,10.051,37.525c6.701,10.221,15.865,17.885,27.492,22.994s24.631,7.665,39.012,7.665h64.701h5h37.813v-48h34
		v48h44v-132H222.069z M260.069,279.689h-32v-48h-46v48h-31.813H80.555c-13.218-1-25.213-2.896-35.983-7.423
		c-10.77-4.529-19.338-11.575-25.702-20.876c-6.365-9.301-9.485-20.964-9.363-34.854c0.245-9.854,2.264-18.486,6.058-25.828
		c3.794-7.344,8.904-13.54,15.329-18.559c6.426-5.018,13.799-8.637,22.122-10.901s17.502-3.559,27.538-3.559h53.514v29H97.812
		c-9.363,0-16.477,0.265-21.342,0.845c-4.864,0.582-9.286,1.519-13.264,3.11c-3.978,1.59-7.71,4.054-11.198,7.542
		c-3.488,3.486-5.569,10.334-6.242,20.615c0.551,8.934,2.448,15.586,5.691,19.992c3.243,4.408,7.251,7.241,12.024,8.526
		s9.608,2.191,14.503,2.742c4.896,0.551,11.505,0.627,19.828,0.627h52.257v-5.146v-87.854h32v46h46v-46h32V279.689z"/>
</g>
</svg>
